<svg width="224" height="303" viewBox="0 0 224 303" fill="none" xmlns="http://www.w3.org/2000/svg">
<path d="M187.974 15.1649L180.78 17.4214L25.6918 66.318L21.8274 67.5389V234.979C21.0789 234.68 20.3199 234.409 19.5519 234.165C15.4253 232.872 10.7697 232.211 5.71928 232.187C0.669479 232.162 -4.76973 232.785 -10.4439 234.036C-21.7922 236.538 -32.0238 241.197 -39.7378 247.018C-47.4519 252.839 -53.2012 259.936 -53.2012 268.397C-53.2012 272.628 -51.4211 276.644 -48.6337 279.549C-45.8464 282.453 -42.2009 284.414 -38.0737 285.707C-29.8181 288.295 -19.4066 288.341 -8.05775 285.837C3.28995 283.334 13.5215 278.675 21.2362 272.855C28.9497 267.034 34.6806 259.919 34.6806 251.458C34.6806 248.899 34.0178 246.425 32.8875 244.226V133.285L176.915 87.8997V172.176C176.161 171.877 175.396 171.605 174.622 171.362C170.494 170.069 165.839 169.408 160.789 169.384C155.739 169.358 150.299 169.962 144.625 171.213C133.277 173.717 123.045 178.376 115.331 184.196C107.617 190.017 101.886 197.133 101.886 205.593C101.886 209.825 103.648 213.841 106.437 216.745C109.224 219.65 112.868 221.592 116.995 222.885C125.251 225.472 135.662 225.536 147.011 223.033C158.359 220.53 168.591 215.871 176.305 210.05C184.019 204.23 189.75 197.115 189.75 188.653C189.75 186.107 189.096 183.637 187.974 181.441V15.1649ZM176.915 30.2557V47.5291L32.8869 92.9122V75.6388L176.915 30.2557ZM176.915 59.1236V76.2857L32.8863 121.688V104.526L176.915 59.1236Z" fill="#000AFF" fill-opacity="0.04"/>
</svg>
