<svg width="224" height="317" viewBox="0 0 224 317" fill="none" xmlns="http://www.w3.org/2000/svg">
<path d="M171.708 145.292V99.0625L200.767 69.8721C211.333 59.4375 213.315 42.795 205.918 29.8509C203.099 24.8253 198.997 20.6372 194.032 17.7136C189.066 14.79 183.414 13.2354 177.652 13.2084C174.878 13.2084 171.708 13.6046 169.199 14.3971C154.934 18.2275 145.292 31.4359 145.292 46.2292V89.0242L103.817 130.895C93.0515 141.879 85.7479 155.783 82.8128 170.881C79.8777 185.979 81.4405 201.606 87.3071 215.824C97.4775 240.92 119.667 258.223 145.292 262.714V270.771C145.292 274.205 142.254 277.375 138.687 277.375H118.875V303.792H138.687C156.519 303.792 171.708 289.13 171.708 270.771V264.167C198.521 264.167 226.655 238.807 226.655 201.427C226.655 171.048 201.295 145.292 171.708 145.292ZM171.708 46.2292C171.708 43.1913 173.161 40.8138 175.935 40.0213C178.841 39.2288 181.879 40.4175 183.332 43.0592C184.079 44.3278 184.381 45.8097 184.189 47.2695C183.998 48.7293 183.324 50.0832 182.275 51.1163L171.708 62.4755V46.2292ZM145.292 151.896C132.48 160.349 122.837 174.878 119.403 188.351L145.292 195.219V235.505C137.719 233.474 130.717 229.724 124.83 224.547C118.942 219.37 114.328 212.904 111.346 205.654C103.553 186.37 107.78 164.444 122.309 149.65L145.292 125.479V151.896ZM171.708 237.75V170.916C187.162 170.916 200.503 185.445 200.503 201.427C200.503 224.542 183.728 237.75 171.708 237.75Z" fill="#000AFF" fill-opacity="0.04"/>
</svg>
