<svg width="157" height="221" viewBox="0 0 157 221" fill="none" xmlns="http://www.w3.org/2000/svg">
<path d="M106.354 46.0417C109.086 46.0417 111.757 46.8518 114.028 48.3695C116.299 49.8873 118.07 52.0445 119.115 54.5684C120.161 57.0923 120.434 59.8695 119.901 62.5489C119.368 65.2283 118.053 67.6894 116.121 69.6211C114.189 71.5528 111.728 72.8683 109.049 73.4013C106.369 73.9343 103.592 73.6607 101.068 72.6153C98.5445 71.5699 96.3872 69.7995 94.8695 67.528C93.3518 65.2566 92.5417 62.5861 92.5417 59.8542C92.5417 56.1909 93.9969 52.6776 96.5873 50.0873C99.1776 47.4969 102.691 46.0417 106.354 46.0417ZM106.354 101.292C109.086 101.292 111.757 102.102 114.028 103.62C116.299 105.137 118.07 107.294 119.115 109.818C120.161 112.342 120.434 115.12 119.901 117.799C119.368 120.478 118.053 122.939 116.121 124.871C114.189 126.803 111.728 128.118 109.049 128.651C106.369 129.184 103.592 128.911 101.068 127.865C98.5445 126.82 96.3872 125.049 94.8695 122.778C93.3518 120.507 92.5417 117.836 92.5417 115.104C92.5417 111.441 93.9969 107.928 96.5873 105.337C99.1776 102.747 102.691 101.292 106.354 101.292ZM28.0833 36.8334C15.8723 36.8334 4.16144 41.6842 -4.47305 50.3187C-13.1075 58.9532 -17.9583 70.664 -17.9583 82.875V92.0834C-17.9439 95.652 -16.8929 99.1395 -14.9332 102.122C-12.9735 105.104 -10.1896 107.453 -6.91981 108.883C-3.65006 110.312 -0.0353737 110.761 3.48475 110.175C7.00486 109.588 10.2788 107.992 12.9084 105.579C15.538 103.167 17.4101 100.042 18.297 96.5857C19.1839 93.129 19.0474 89.4891 17.9042 86.1085C16.7609 82.728 14.6601 79.7524 11.8572 77.5436C9.05425 75.3348 5.66998 73.9879 2.11582 73.6667C4.01562 68.2932 7.53097 63.6388 12.1799 60.3417C16.8289 57.0445 22.3839 55.2661 28.0833 55.25C37.8521 55.25 47.2208 59.1307 54.1284 66.0383C61.036 72.9459 64.9167 82.3146 64.9167 92.0834C64.9167 125.141 44.3821 149.083 0.458324 167.592L7.45666 184.535C58.5629 163.172 83.3333 132.876 83.3333 92.0834C83.3333 77.4302 77.5124 63.3771 67.151 53.0157C56.7896 42.6543 42.7365 36.8334 28.0833 36.8334Z" fill="#000AFF" fill-opacity="0.04"/>
</svg>
